<svg width="32" height="32" viewBox="0 0 32 32" fill="none" xmlns="http://www.w3.org/2000/svg">
<path d="M17.7002 23.7736C17.7002 27.4912 14.583 30.4998 10.7295 30.4998C6.87602 30.4998 3.75879 27.4912 3.75879 23.7736C3.75879 20.0561 6.87602 17.0474 10.7295 17.0474C14.583 17.0474 17.7002 20.0561 17.7002 23.7736Z" fill="#FF6600"/>
<path d="M31.5 14.3539C31.5 18.0715 28.3828 21.0802 24.5293 21.0802C20.6758 21.0802 17.5586 18.0715 17.5586 14.3539C17.5586 10.6364 20.6758 7.62769 24.5293 7.62769C28.3828 7.62769 31.5 10.6364 31.5 14.3539Z" fill="#FFCC00"/>
<path d="M14.4414 14.2123C14.4414 17.9299 11.3242 20.9386 7.4707 20.9386C3.61723 20.9386 0.5 17.9299 0.5 14.2123C0.5 10.4948 3.61723 7.48608 7.4707 7.48608C11.3242 7.48608 14.4414 10.4948 14.4414 14.2123Z" fill="#0089CC"/>
<path d="M28.3992 23.7736C28.3992 27.4912 25.2819 30.4998 21.4285 30.4998C17.575 30.4998 14.4578 27.4912 14.4578 23.7736C14.4578 20.0561 17.575 17.0474 21.4285 17.0474C25.2819 17.0474 28.3992 20.0561 28.3992 23.7736Z" fill="#009939"/>
<path d="M22.978 8.22624C22.978 11.9438 19.8608 14.9525 16.0073 14.9525C12.1539 14.9525 9.03662 11.9438 9.03662 8.22624C9.03662 4.50869 12.1539 1.5 16.0073 1.5C19.8608 1.5 22.978 4.50869 22.978 8.22624Z" fill="#BF0000"/>
<path d="M17.5425 14.3535C17.5425 14.4953 17.5581 14.637 17.5581 14.7788C20.6597 14.0857 22.9624 11.4236 22.9624 8.22585C22.9624 8.08408 22.9467 7.94231 22.9467 7.80054C19.8608 8.49364 17.5425 11.1715 17.5425 14.3535Z" fill="#FC0007"/>
<path d="M18.4668 17.6932C19.673 19.7253 21.9287 21.0957 24.529 21.0957C25.5941 21.0957 26.581 20.8594 27.4895 20.4499C26.2834 18.4178 24.0277 17.0474 21.4274 17.0474C20.3622 17.0474 19.3597 17.2836 18.4668 17.6932Z" fill="#1CD306"/>
<path d="M14.4409 23.7744C14.4409 25.4126 15.0518 26.9249 16.07 28.0905C17.0882 26.9249 17.6991 25.4126 17.6991 23.7744C17.6991 22.1361 17.0882 20.6239 16.07 19.4583C15.0518 20.6239 14.4409 22.1361 14.4409 23.7744Z" fill="#0F7504"/>
<path d="M4.71362 20.3869C5.59083 20.7492 6.53071 20.9382 7.47058 20.9382C10.0396 20.9382 12.2796 19.5992 13.4857 17.5987C12.6085 17.2364 11.6687 17.0474 10.7288 17.0474C8.15981 17.0474 5.91979 18.3863 4.71362 20.3869Z" fill="#0C5E87"/>
<path d="M9.0533 7.65894C9.03764 7.84796 9.02197 8.03699 9.02197 8.22602C9.02197 11.4237 11.3247 14.0859 14.4262 14.7632C14.4419 14.5742 14.4576 14.3852 14.4576 14.1961C14.4419 11.0142 12.1392 8.35204 9.0533 7.65894Z" fill="#6B0001"/>
<path d="M9.64785 15.4563C9.63218 15.4563 9.61652 15.4563 9.60086 15.4563C9.22491 15.4563 8.86463 15.4563 8.48868 15.4563C8.19106 15.4563 7.92476 15.3618 7.67413 15.1885C7.47049 15.031 7.31384 14.8262 7.18852 14.5899C7.07887 14.3694 7.00055 14.1173 6.95355 13.881C6.8909 13.6132 6.84391 13.3455 6.81258 13.0777C6.78125 12.8099 6.78124 12.5421 6.79691 12.2743C6.82824 11.8805 6.90657 11.4867 7.00055 11.0929C7.14153 10.5573 7.45482 10.1635 7.95608 9.91145C8.22238 9.78543 8.50435 9.72242 8.80197 9.73817C10.1804 9.73817 11.5589 9.73817 12.9217 9.73817C12.9374 9.73817 12.9531 9.73817 12.9844 9.73817C12.9844 9.5649 12.9844 9.40738 12.9844 9.2341C12.0288 9.2341 11.089 9.2341 10.1335 9.2341C10.1335 9.21835 10.1335 9.20259 10.1335 9.18684C10.1335 8.76153 10.1335 8.35197 10.1335 7.92666C10.1335 7.73763 10.1491 7.56435 10.1961 7.37533C10.2744 7.10754 10.4467 6.90276 10.6817 6.77674C10.901 6.65072 11.1203 6.58771 11.3709 6.54045C11.6999 6.47744 12.0288 6.43019 12.3578 6.41443C12.6398 6.39868 12.9061 6.39868 13.188 6.39868C13.3447 6.39868 13.517 6.44594 13.6736 6.46169C13.8459 6.4932 14.0182 6.5247 14.1905 6.57196C14.5508 6.68222 14.8485 6.87125 15.0834 7.1863C15.2557 7.42258 15.3497 7.69037 15.3497 7.98967C15.3497 8.88755 15.3497 9.78543 15.3497 10.6833C15.3497 11.3764 14.8485 11.975 14.1749 12.0853C14.0966 12.101 14.0026 12.101 13.9086 12.101C13.094 12.101 12.2638 12.101 11.4493 12.101C11.0577 12.101 10.713 12.227 10.3997 12.4476C10.0395 12.7311 9.78883 13.0934 9.69484 13.5502C9.66351 13.6763 9.66352 13.8023 9.66352 13.9283C9.66352 14.4324 9.66352 14.9207 9.66352 15.4248C9.64785 15.4248 9.64785 15.4405 9.64785 15.4563ZM10.7757 8.03692C10.7757 8.33622 11.0107 8.5725 11.3083 8.5725C11.6059 8.5725 11.8409 8.32047 11.8409 8.03692C11.8409 7.73763 11.5902 7.50134 11.3083 7.50134C11.0107 7.50134 10.7757 7.73763 10.7757 8.03692Z" fill="white"/>
<path d="M22.8694 19.0327C22.885 19.0327 22.9007 19.0327 22.9164 19.0327C23.2923 19.0327 23.6526 19.0327 24.0285 19.0327C24.3262 19.0327 24.5924 19.1272 24.8431 19.3005C25.0467 19.458 25.2034 19.6628 25.3287 19.8991C25.4383 20.1196 25.5167 20.3717 25.5637 20.6079C25.6263 20.8757 25.6733 21.1435 25.7046 21.4113C25.736 21.6791 25.736 21.9469 25.7203 22.2147C25.689 22.6085 25.6106 23.0023 25.5167 23.3961C25.3757 23.9317 25.0624 24.3255 24.5611 24.5775C24.2948 24.7036 24.0129 24.7508 23.7152 24.7508C22.3368 24.7508 20.9583 24.7508 19.5955 24.7508C19.5798 24.7508 19.5642 24.7508 19.5328 24.7508C19.5328 24.9241 19.5328 25.0816 19.5328 25.2549C20.4884 25.2549 21.4282 25.2549 22.3838 25.2549C22.3838 25.2706 22.3838 25.2864 22.3838 25.3021C22.3838 25.7274 22.3838 26.137 22.3838 26.5623C22.3838 26.7514 22.3681 26.9246 22.3211 27.1137C22.2428 27.3814 22.0705 27.5862 21.8355 27.7122C21.6162 27.8383 21.3969 27.9013 21.1463 27.9485C20.8173 28.0115 20.4884 28.0588 20.1594 28.0745C19.8774 28.0903 19.6111 28.0903 19.3292 28.0903C19.1725 28.0903 19.0002 28.043 18.8436 28.0273C18.6713 27.9958 18.499 27.9643 18.3267 27.917C17.9664 27.8068 17.6687 27.6177 17.4338 27.3027C17.2615 27.0664 17.1675 26.7986 17.1675 26.4993C17.1675 25.6014 17.1675 24.7035 17.1675 23.8057C17.1675 23.1126 17.6687 22.514 18.3423 22.4037C18.4206 22.388 18.5146 22.388 18.6086 22.388C19.4232 22.388 20.2534 22.388 21.0679 22.388C21.4596 22.388 21.8042 22.2619 22.1175 22.0414C22.4777 21.7579 22.7284 21.3956 22.8224 20.9387C22.8537 20.8127 22.8537 20.6867 22.8537 20.5607C22.8537 20.0566 22.8537 19.5683 22.8537 19.0642C22.8694 19.0642 22.8694 19.0485 22.8694 19.0327ZM21.7415 26.4521C21.7415 26.1528 21.5065 25.9165 21.2089 25.9165C20.9113 25.9165 20.6763 26.1685 20.6763 26.4521C20.6763 26.7514 20.927 26.9876 21.2089 26.9876C21.5065 26.9876 21.7415 26.7514 21.7415 26.4521Z" fill="white"/>
<path d="M12.3103 21.6791H11.5584C10.9005 21.6791 10.3679 21.1593 10.3679 20.5292V14.0235C10.3679 13.3934 10.9005 12.8735 11.5584 12.8735H20.8944C21.5524 12.8735 22.085 13.3934 22.085 14.0235V20.5292C22.085 21.1593 21.5524 21.6791 20.8944 21.6791H17.7146L11.3234 24.6878L12.3103 21.6791Z" fill="white"/>
</svg>
